<?xml version="1.0" encoding="UTF-8" standalone="no"?>
<svg
   xmlns:dc="http://purl.org/dc/elements/1.1/"
   xmlns:cc="http://creativecommons.org/ns#"
   xmlns:rdf="http://www.w3.org/1999/02/22-rdf-syntax-ns#"
   xmlns:svg="http://www.w3.org/2000/svg"
   xmlns="http://www.w3.org/2000/svg"
   xmlns:sodipodi="http://sodipodi.sourceforge.net/DTD/sodipodi-0.dtd"
   xmlns:inkscape="http://www.inkscape.org/namespaces/inkscape"
   version="1.1"
   x="0px"
   y="0px"
   viewBox="0 0 87.8379 87.02344"
   enable-background="new 0 0 100 100"
   xml:space="preserve"
   id="svg14"
   sodipodi:docname="logo.svg"
   width="87.837898"
   height="87.023438"
   inkscape:version="0.92.3 (2405546, 2018-03-11)"
   inkscape:export-filename="C:\Users\IGurkin\Desktop\AIDA\logo_app.png"
   inkscape:export-xdpi="405.51282"
   inkscape:export-ydpi="405.51282"><metadata
     id="metadata20"><rdf:RDF><cc:Work
         rdf:about=""><dc:format>image/svg+xml</dc:format><dc:type
           rdf:resource="http://purl.org/dc/dcmitype/StillImage" /><dc:title></dc:title></cc:Work></rdf:RDF></metadata><defs
     id="defs18" /><sodipodi:namedview
     pagecolor="#ffffff"
     bordercolor="#666666"
     borderopacity="1"
     objecttolerance="10"
     gridtolerance="10"
     guidetolerance="10"
     inkscape:pageopacity="0"
     inkscape:pageshadow="2"
     inkscape:window-width="1436"
     inkscape:window-height="916"
     id="namedview16"
     showgrid="false"
     fit-margin-top="0"
     fit-margin-left="0"
     fit-margin-right="0"
     fit-margin-bottom="0"
     inkscape:zoom="5.3400704"
     inkscape:cx="-4.6839655"
     inkscape:cy="32.92801"
     inkscape:window-x="129"
     inkscape:window-y="43"
     inkscape:window-maximized="0"
     inkscape:current-layer="svg14" /><path
     style="fill:#045a86;fill-opacity:1"
     d="M 20,0 4.998047,0.002 C 2.235048,0.002 0,2.239001 0,5.002 v 15.001953 c 0.002,2.761001 2.237954,4.999954 5.001953,5.001953 C 7.759954,25.003906 10,22.762047 10,20.000047 L 9.998,18.798875 c 0.04944,-0.233963 0.09236,-0.374488 0.144531,-0.632812 0.07347,-0.363786 1.68806,0.951411 5.583985,4.634765 l 62.505859,62.505864 c 1.953,1.954 5.117309,1.953 7.070313,0 0.977,-0.977 1.46484,-2.256162 1.46484,-3.535161 0,-1.281001 -0.48889,-2.560157 -1.46289,-3.535156 L 21.941406,14.873047 c -0.557471,-0.578669 -1.262747,-1.303001 -1.701172,-1.763672 -1.330069,-1.473529 -2.028925,-2.358799 -2.195312,-2.775391 0.105424,-0.151201 0.297679,-0.270856 0.535156,-0.332031 L 20,10.003953 c 2.762,-0.002 4.999048,-2.243906 4.998047,-5.003906 7.15e-4,-1.974734 -1.152911,-3.66396 -2.814453,-4.476563 L 22.097654,0.421922 H 21.996092 C 21.383725,0.154481 20.711098,4.7e-5 19.999998,4.7e-5 Z m 38.802734,4.802734 c -2.180064,0.0039 -4.012584,1.405613 -4.697265,3.34961 l -0.203125,0.201172 0.0078,0.425781 c -0.06903,0.33115 -0.107422,0.673625 -0.107422,1.02539 v 15.003907 c 0,0.551463 0.110486,1.072354 0.275391,1.568359 v 0.08008 l 0.03711,0.03711 c 0.03243,0.09004 0.07989,0.172175 0.117188,0.259765 l 0.0039,0.246094 0.173828,0.148437 c 0.837833,1.577388 2.480507,2.658204 4.392578,2.658204 2.762,0 4.999046,-2.241 4.998047,-5 v -2.931641 l 15.501953,15.501953 c 1.951,1.953 5.117313,1.953 7.070311,0 0.977,-0.977 1.46385,-2.256156 1.46485,-3.535156 0,-1.28 -0.48885,-2.559156 -1.46485,-3.535156 L 71.150391,15.083984 c 0.165183,-0.08978 0.517971,-0.18692 0.96289,-0.279297 h 1.6875 c 2.763001,0 5.001953,-2.239 5.001953,-5 0,-2.760999 -2.24,-5 -5,-5 z m -40.787109,57.21875 c -2.175924,-7.87e-4 -4.007243,1.395187 -4.695312,3.333985 L 13.1875,65.488281 v 0.296875 c -0.10142,0.397026 -0.171875,0.805692 -0.171875,1.234375 v 15.001953 c 3.09e-4,0.426976 0.07141,0.833107 0.171875,1.228516 v 0.410156 l 0.183594,0.183594 c 0.729449,1.859495 2.527897,3.178155 4.648437,3.179685 2.76,-0.002 5.000047,-2.2419 4.998047,-5.003904 l -0.002,-2.929687 5.662109,5.664061 c 1.953999,1.952 5.119313,1.951 7.070313,0 0.979999,-0.979 1.464797,-2.256108 1.466797,-3.537108 -0.002,-1.279 -0.48789,-2.561156 -1.462891,-3.535156 l -5.61914,-5.617188 0.378906,-0.04102 0.02539,-0.0039 h 2.478516 c 2.765001,0 5.001953,-2.238047 5.001953,-4.998047 9.99e-4,-2.763 -2.240953,-5.003 -5.001953,-5 z"
     id="path2"
     inkscape:connector-curvature="0" /></svg>